<svg viewBox="0 0 210 210" xmlns="http://www.w3.org/2000/svg" xmlns:xlink="http://www.w3.org/1999/xlink"><title>ic_mail_signup</title><defs><path id="a" d="M0 1.244h139.527V100H0"/></defs><g fill="none" fill-rule="evenodd"><path d="M165.286 155H44.24c-5.103 0-9.24-4.108-9.24-9.173v-80.41c0-5.065 4.137-9.173 9.24-9.173h121.046c5.103 0 9.24 4.108 9.24 9.174v80.41c0 5.064-4.137 9.172-9.24 9.172" fill="#F4D931"/><g transform="translate(35 55)"><mask id="b" fill="#fff"><use xlink:href="#a"/></mask><path d="M130.303 1.245H9.24C4.138 1.245 0 5.36 0 10.435v12.662L67.662 62.24c1.3.753 2.903.755 4.204.01l67.66-38.858V10.418c0-5.066-4.13-9.173-9.224-9.173" fill="#63CE84" mask="url(#b)"/></g></g></svg>
