<svg viewBox="0 0 210 210" xmlns="http://www.w3.org/2000/svg" xmlns:xlink="http://www.w3.org/1999/xlink"><title>ic_sagojokun_login</title><defs><path id="a" d="M0 0h208.007v252H0V0z"/></defs><g fill="none" fill-rule="evenodd"><g transform="translate(-5 54)"><mask id="b" fill="#fff"><use xlink:href="#a"/></mask><path d="M14.684 18.627C6.574 18.627 0 27.387 0 38.194c0 10.808 6.574 19.568 14.684 19.568v.148h96.644V18.627H14.684z" fill="#47B268" mask="url(#b)"/></g><path d="M24.377 92.195c0 10.807-6.574 19.567-14.684 19.567S-4.99 103.002-4.99 92.195c0-10.808 6.574-19.568 14.683-19.568 8.11 0 14.684 8.76 14.684 19.568" opacity=".379" fill="#FFF"/><path d="M17.99 92.195c0 6.106-3.715 11.058-8.297 11.058-4.583 0-8.298-4.952-8.298-11.058 0-6.107 3.715-11.058 8.298-11.058 4.582 0 8.298 4.95 8.298 11.058" opacity=".515" fill="#FFF"/><path d="M31.87 78.066c0 .9-.73 1.633-1.628 1.633-.898 0-1.626-.733-1.626-1.634 0-.902.728-1.633 1.626-1.633.898 0 1.627.73 1.627 1.633M40.002 85.57c0 .9-.728 1.633-1.626 1.633-.898 0-1.627-.732-1.627-1.633 0-.902.728-1.633 1.626-1.633.898 0 1.626.73 1.626 1.633M31.87 92.27c0 .9-.73 1.632-1.628 1.632-.898 0-1.626-.732-1.626-1.633 0-.903.728-1.634 1.626-1.634.898 0 1.627.73 1.627 1.633M31.87 106.472c0 .9-.73 1.633-1.628 1.633-.898 0-1.626-.732-1.626-1.633 0-.902.728-1.633 1.626-1.633.898 0 1.627.73 1.627 1.632M40.002 98.968c0 .9-.728 1.633-1.626 1.633-.898 0-1.627-.73-1.627-1.632 0-.902.728-1.633 1.626-1.633.898 0 1.626.73 1.626 1.633" opacity=".264" fill="#231814"/><path d="M47.427 78.066c0 .9-.73 1.633-1.627 1.633-.898 0-1.627-.733-1.627-1.634 0-.902.73-1.633 1.627-1.633.898 0 1.627.73 1.627 1.633M55.56 85.57c0 .9-.73 1.633-1.627 1.633-.898 0-1.626-.732-1.626-1.633 0-.902.728-1.633 1.626-1.633.898 0 1.627.73 1.627 1.633M47.427 92.27c0 .9-.73 1.632-1.627 1.632-.898 0-1.627-.732-1.627-1.633 0-.903.73-1.634 1.627-1.634.898 0 1.627.73 1.627 1.633M47.427 106.472c0 .9-.73 1.633-1.627 1.633-.898 0-1.627-.732-1.627-1.633 0-.902.73-1.633 1.627-1.633.898 0 1.627.73 1.627 1.632M55.56 98.968c0 .9-.73 1.633-1.627 1.633-.898 0-1.626-.73-1.626-1.632 0-.902.728-1.633 1.626-1.633.898 0 1.627.73 1.627 1.633M63.902 78.066c0 .9-.73 1.633-1.627 1.633-.898 0-1.627-.733-1.627-1.634 0-.902.73-1.633 1.627-1.633.898 0 1.627.73 1.627 1.633M72.035 85.57c0 .9-.73 1.633-1.627 1.633-.898 0-1.626-.732-1.626-1.633 0-.902.728-1.633 1.626-1.633.898 0 1.627.73 1.627 1.633M63.902 92.27c0 .9-.73 1.632-1.627 1.632-.898 0-1.627-.732-1.627-1.633 0-.903.73-1.634 1.627-1.634.898 0 1.627.73 1.627 1.633M63.902 106.472c0 .9-.73 1.633-1.627 1.633-.898 0-1.627-.732-1.627-1.633 0-.902.73-1.633 1.627-1.633.898 0 1.627.73 1.627 1.632M72.035 98.968c0 .9-.73 1.633-1.627 1.633-.898 0-1.626-.73-1.626-1.632 0-.902.728-1.633 1.626-1.633.898 0 1.627.73 1.627 1.633M79.46 78.066c0 .9-.73 1.633-1.627 1.633-.898 0-1.627-.733-1.627-1.634 0-.902.73-1.633 1.627-1.633.898 0 1.626.73 1.626 1.633M87.593 85.57c0 .9-.73 1.633-1.627 1.633-.898 0-1.627-.732-1.627-1.633 0-.902.728-1.633 1.626-1.633.898 0 1.627.73 1.627 1.633M79.46 92.27c0 .9-.73 1.632-1.627 1.632-.898 0-1.627-.732-1.627-1.633 0-.903.73-1.634 1.627-1.634.898 0 1.626.73 1.626 1.633M79.46 106.472c0 .9-.73 1.633-1.627 1.633-.898 0-1.627-.732-1.627-1.633 0-.902.73-1.633 1.627-1.633.898 0 1.626.73 1.626 1.632M87.593 98.968c0 .9-.73 1.633-1.627 1.633-.898 0-1.627-.73-1.627-1.632 0-.902.728-1.633 1.626-1.633.898 0 1.627.73 1.627 1.633M95.333 78.066c0 .9-.728 1.633-1.626 1.633-.898 0-1.627-.733-1.627-1.634 0-.902.73-1.633 1.627-1.633.898 0 1.626.73 1.626 1.633M103.467 85.57c0 .9-.73 1.633-1.627 1.633-.898 0-1.627-.732-1.627-1.633 0-.902.73-1.633 1.627-1.633.898 0 1.627.73 1.627 1.633M95.333 92.27c0 .9-.728 1.632-1.626 1.632-.898 0-1.627-.732-1.627-1.633 0-.903.73-1.634 1.627-1.634.898 0 1.626.73 1.626 1.633M95.333 106.472c0 .9-.728 1.633-1.626 1.633-.898 0-1.627-.732-1.627-1.633 0-.902.73-1.633 1.627-1.633.898 0 1.626.73 1.626 1.632M103.467 98.968c0 .9-.73 1.633-1.627 1.633-.898 0-1.627-.73-1.627-1.632 0-.902.73-1.633 1.627-1.633.898 0 1.627.73 1.627 1.633" fill="#231814"/><path d="M181.996 66.21v54.398H153.93c-5.94 0-10.76 4.58-10.76 10.546 0 5.967 4.82 10.546 10.76 10.546h38.133c5.942 0 10.944-5.78 10.944-11.746V66.21h-21.01z" fill="#47B268"/><path d="M181.996 79.533V64.437c0-4.966 5.03-10.437 10.973-10.437 5.944 0 10.037 6 10.037 10.437v15.096h-21.01z" fill="#5BC479"/><path d="M130.12 185.162c-2.292 0-4.512-1.226-5.682-3.39-1.7-3.146-.538-7.082 2.595-8.79 40.023-21.81 23.226-63.867 22.492-65.647-1.362-3.3.19-7.092 3.475-8.47 3.283-1.38 7.056.17 8.435 3.463.226.542 22.144 54.59-28.242 82.048-.978.533-2.033.786-3.074.786" fill="#CEB11F"/><path d="M123.43 210.184H54.145c-6.703 0-12.137-5.455-12.137-12.186V84.813c0-6.73 5.434-12.185 12.137-12.185h69.287c6.704 0 12.14 5.455 12.14 12.185v113.185c0 6.73-5.436 12.186-12.14 12.186" fill="#F4D931"/><path d="M61.026 210.21h-7.04c-6.617 0-11.98-5.383-11.98-12.025V84.655c0-6.643 5.363-12.027 11.98-12.027h7.04c6.616 0 11.98 5.384 11.98 12.026v113.53c0 6.643-5.364 12.027-11.98 12.027" fill="#EBCA2A"/><path d="M162.263 306h-28.585c-3.396 0-6.593-1.866-8.623-4.598-2.033-2.733-2.66-6.395-1.694-9.664 15.807-53.472-5.957-92.484-6.178-92.872-2.953-5.156-1.207-11.792 3.918-14.777 5.124-2.99 11.68-.772 14.674 4.36 1.02 1.75 23.062 39.84 11.69 96.457h14.8c5.942 0 10.76 4.58 10.76 10.547 0 5.967-4.818 10.546-10.76 10.546" fill="#46A55E"/><path d="M129.264 306H100.68c-3.397 0-6.594-1.866-8.624-4.598-2.033-2.733-2.66-6.395-1.693-9.664 15.805-53.472-5.958-92.484-6.18-92.872-2.953-5.156-1.207-11.792 3.918-14.777 5.126-2.99 11.68-.772 14.676 4.36 1.02 1.75 23.062 39.84 11.688 96.457h14.8c5.943 0 10.76 4.58 10.76 10.547 0 5.967-4.817 10.546-10.76 10.546" fill="#5BC479"/><path d="M76.247 166.123c0 36.635 21.27 60.85 47.51 60.85 26.238 0 47.508-24.215 47.508-60.85H76.247z" fill="#5BC479"/><path d="M171.265 166.123c0-29.973-21.27-60.224-47.51-60.224-26.238 0-47.51 30.25-47.51 60.223h95.02z" fill="#E6EBED"/><path d="M70.308 66.21v54.398h27.646c6.635 0 6.635 21.092 0 21.092H59.962c-5.94 0-11.77-5.78-11.77-11.746V66.21h22.116z" fill="#47B268"/><path d="M70.308 79.533V64.437c0-4.966-5.31-10.437-11.25-10.437h-.004c-5.942 0-10.862 6-10.862 10.437v15.096h22.116z" fill="#5BC479"/><path d="M70.52 183.722c-2.293 0-4.512-1.227-5.682-3.39-1.7-3.146-.54-7.082 2.594-8.79 40.023-21.81 23.227-63.867 22.493-65.647-1.363-3.3.19-7.093 3.474-8.47 3.282-1.38 7.055.167 8.434 3.462.227.543 22.144 54.59-28.24 82.05-.98.532-2.035.785-3.075.785" fill="#CEB11F"/><path d="M107.65 99.726c0 17.575 14.305 31.822 31.95 31.822 17.648 0 31.953-14.247 31.953-31.822 0-17.574-14.305-31.822-31.952-31.822-17.645 0-31.95 14.248-31.95 31.822" fill="#63CE84"/><path d="M140.348 58.61l7.105 3.948c.112.064.24.094.37.086l11.22-.633c.477-.026.835.435.692.894l-1.146 3.685c-.112.36.084.742.442.858l7.283 2.377c.63.207.63 1.103 0 1.31l-7.283 2.376c-.358.117-.554.5-.443.86l1.145 3.686c.143.458-.215.92-.692.892l-11.22-.632c-.13-.008-.258.022-.37.085l-7.105 3.95c-.207.114-.458.114-.664 0l-7.105-3.95c-.115-.062-.243-.092-.37-.084l-11.22.632c-.48.027-.836-.434-.693-.892l1.146-3.686c.11-.36-.087-.743-.443-.86l-7.284-2.376c-.63-.206-.63-1.102 0-1.31L121 67.45c.356-.116.554-.5.443-.86l-1.146-3.684c-.143-.46.214-.92.692-.893l11.22.634c.127.008.255-.022.37-.086l7.104-3.948c.206-.115.457-.115.664 0" fill="#47B268"/><path d="M152.738 70.48c0 2.993-5.696 5.418-12.723 5.418-7.025 0-12.72-2.425-12.72-5.418 0-2.993 5.695-5.42 12.72-5.42 7.027 0 12.723 2.427 12.723 5.42" fill="#E6EBED"/><path d="M164.227 108.396c0-7.77-6.178-13.854-13.8-13.854-7.622 0-13.8 6.084-13.8 13.854h27.6z" fill="#FFCB00"/><path d="M145.63 92.37h-1.576c-.916 0-1.658-.745-1.658-1.664v-1.583c0-.92.742-1.665 1.658-1.665h1.577c.917 0 1.66.745 1.66 1.665v1.583c0 .92-.743 1.665-1.66 1.665M149.438 101.47c-.805 0-1.46-.657-1.46-1.465s.655-1.464 1.46-1.464c.805 0 1.46.657 1.46 1.465s-.655 1.464-1.46 1.464M154.196 101.47c-.805 0-1.458-.657-1.458-1.465s.653-1.464 1.458-1.464c.805 0 1.46.657 1.46 1.465s-.655 1.464-1.46 1.464M157.052 92.37h-1.577c-.917 0-1.66-.745-1.66-1.664v-1.583c0-.92.743-1.665 1.66-1.665h1.577c.916 0 1.66.745 1.66 1.665v1.583c0 .92-.744 1.665-1.66 1.665" fill="#494848"/></g></svg>
