<svg width="35" height="35" viewBox="0 0 35 35" xmlns="http://www.w3.org/2000/svg" xmlns:xlink="http://www.w3.org/1999/xlink"><title>ic_camera</title><defs><path id="a" d="M0 0h18v16H0"/></defs><g fill="none" fill-rule="evenodd"><circle fill-opacity=".8" fill="#000" cx="17.5" cy="17.5" r="17.5"/><g transform="translate(9 9)"><mask id="b" fill="#fff"><use xlink:href="#a"/></mask><path d="M14.923 16H3.077C1.377 16 0 14.622 0 12.923V5.077C0 3.377 1.377 2 3.077 2h11.846C16.623 2 18 3.378 18 5.077v7.846c0 1.7-1.378 3.077-3.077 3.077" fill="#FFCB00" mask="url(#b)"/></g><path d="M22 18c0 2.21-1.79 4-4 4s-4-1.79-4-4 1.79-4 4-4 4 1.79 4 4" fill="#FFF"/><path d="M20 18c0 1.105-.895 2-2 2s-2-.895-2-2 .895-2 2-2 2 .895 2 2M20.343 13h-4.685c-.842 0-1.46-.79-1.256-1.608l.353-1.412c.144-.576.662-.98 1.256-.98h3.98c.594 0 1.11.404 1.256.98l.352 1.412c.205.817-.413 1.608-1.255 1.608" fill="#FFCB00"/></g></svg>