<?xml version="1.0" encoding="UTF-8" standalone="no"?>
<svg viewBox="0 0 210 210" version="1.1" xmlns="http://www.w3.org/2000/svg" xmlns:xlink="http://www.w3.org/1999/xlink" xmlns:sketch="http://www.bohemiancoding.com/sketch/ns">
    <!-- Generator: Sketch 3.4.4 (17249) - http://www.bohemiancoding.com/sketch -->
    <title>ic_earth_signup</title>
    <desc>Created with Sketch.</desc>
    <defs>
        <path id="path-1" d="M105.031895,0.144315789 C47.0816842,0.144315789 0.103894737,47.1221053 0.103894737,105.072 L0.103894737,105.072 C0.103894737,163.022211 47.0816842,210 105.031895,210 L105.031895,210 C162.981789,210 209.959579,163.022211 209.959579,105.072 L209.959579,105.072 C209.959579,47.1221053 162.981789,0.144315789 105.031895,0.144315789"></path>
        <path id="path-3" d="M105.031895,0.144315789 C47.0816842,0.144315789 0.103894737,47.1221053 0.103894737,105.072 L0.103894737,105.072 C0.103894737,163.022211 47.0816842,210 105.031895,210 L105.031895,210 C162.981789,210 209.959579,163.022211 209.959579,105.072 L209.959579,105.072 C209.959579,47.1221053 162.981789,0.144315789 105.031895,0.144315789"></path>
        <path id="path-5" d="M105.031895,0.144315789 C47.0816842,0.144315789 0.103894737,47.1221053 0.103894737,105.072 L0.103894737,105.072 C0.103894737,163.022211 47.0816842,210 105.031895,210 L105.031895,210 C162.981789,210 209.959579,163.022211 209.959579,105.072 L209.959579,105.072 C209.959579,47.1221053 162.981789,0.144315789 105.031895,0.144315789"></path>
        <path id="path-7" d="M105.031895,0.144315789 C47.0816842,0.144315789 0.103894737,47.1221053 0.103894737,105.072 L0.103894737,105.072 C0.103894737,163.022211 47.0816842,210 105.031895,210 L105.031895,210 C162.981789,210 209.959579,163.022211 209.959579,105.072 L209.959579,105.072 C209.959579,47.1221053 162.981789,0.144315789 105.031895,0.144315789"></path>
        <path id="path-9" d="M105.031895,0.144315789 C47.0816842,0.144315789 0.103894737,47.1221053 0.103894737,105.072 L0.103894737,105.072 C0.103894737,163.022211 47.0816842,210 105.031895,210 L105.031895,210 C162.981789,210 209.959579,163.022211 209.959579,105.072 L209.959579,105.072 C209.959579,47.1221053 162.981789,0.144315789 105.031895,0.144315789 L105.031895,0.144315789 Z"></path>
        <path id="path-11" d="M105.031895,0.144315789 C47.0816842,0.144315789 0.103894737,47.1221053 0.103894737,105.072 L0.103894737,105.072 C0.103894737,163.022211 47.0816842,210 105.031895,210 L105.031895,210 C162.981789,210 209.959579,163.022211 209.959579,105.072 L209.959579,105.072 C209.959579,47.1221053 162.981789,0.144315789 105.031895,0.144315789"></path>
        <path id="path-13" d="M105.031895,0.144315789 C47.0816842,0.144315789 0.103894737,47.1221053 0.103894737,105.072 L0.103894737,105.072 C0.103894737,163.022211 47.0816842,210 105.031895,210 L105.031895,210 C162.981789,210 209.959579,163.022211 209.959579,105.072 L209.959579,105.072 C209.959579,47.1221053 162.981789,0.144315789 105.031895,0.144315789"></path>
        <path id="path-15" d="M105.031895,0.144315789 C47.0816842,0.144315789 0.103894737,47.1221053 0.103894737,105.072 L0.103894737,105.072 C0.103894737,163.022211 47.0816842,210 105.031895,210 L105.031895,210 C162.981789,210 209.959579,163.022211 209.959579,105.072 L209.959579,105.072 C209.959579,47.1221053 162.981789,0.144315789 105.031895,0.144315789"></path>
        <path id="path-17" d="M105.031895,0.144315789 C47.0816842,0.144315789 0.103894737,47.1221053 0.103894737,105.072 L0.103894737,105.072 C0.103894737,163.022211 47.0816842,210 105.031895,210 L105.031895,210 C162.981789,210 209.959579,163.022211 209.959579,105.072 L209.959579,105.072 C209.959579,47.1221053 162.981789,0.144315789 105.031895,0.144315789"></path>
        <path id="path-19" d="M105.031895,0.144315789 C47.0816842,0.144315789 0.103894737,47.1221053 0.103894737,105.072 L0.103894737,105.072 C0.103894737,163.022211 47.0816842,210 105.031895,210 L105.031895,210 C162.981789,210 209.959579,163.022211 209.959579,105.072 L209.959579,105.072 C209.959579,47.1221053 162.981789,0.144315789 105.031895,0.144315789"></path>
        <path id="path-21" d="M105.031895,0.144315789 C47.0816842,0.144315789 0.103894737,47.1221053 0.103894737,105.072 L0.103894737,105.072 C0.103894737,163.022211 47.0816842,210 105.031895,210 L105.031895,210 C162.981789,210 209.959579,163.022211 209.959579,105.072 L209.959579,105.072 C209.959579,47.1221053 162.981789,0.144315789 105.031895,0.144315789"></path>
        <path id="path-23" d="M105.031895,0.144315789 C47.0816842,0.144315789 0.103894737,47.1221053 0.103894737,105.072 L0.103894737,105.072 C0.103894737,163.022211 47.0816842,210 105.031895,210 L105.031895,210 C162.981789,210 209.959579,163.022211 209.959579,105.072 L209.959579,105.072 C209.959579,47.1221053 162.981789,0.144315789 105.031895,0.144315789"></path>
        <path id="path-25" d="M105.031895,0.144315789 C47.0816842,0.144315789 0.103894737,47.1221053 0.103894737,105.072 L0.103894737,105.072 C0.103894737,163.022211 47.0816842,210 105.031895,210 L105.031895,210 C162.981789,210 209.959579,163.022211 209.959579,105.072 L209.959579,105.072 C209.959579,47.1221053 162.981789,0.144315789 105.031895,0.144315789"></path>
        <path id="path-27" d="M105.031895,0.144315789 C47.0816842,0.144315789 0.103894737,47.1221053 0.103894737,105.072 L0.103894737,105.072 C0.103894737,163.022211 47.0816842,210 105.031895,210 L105.031895,210 C162.981789,210 209.959579,163.022211 209.959579,105.072 L209.959579,105.072 C209.959579,47.1221053 162.981789,0.144315789 105.031895,0.144315789"></path>
        <path id="path-29" d="M105.031895,0.144315789 C47.0816842,0.144315789 0.103894737,47.1221053 0.103894737,105.072 L0.103894737,105.072 C0.103894737,163.022211 47.0816842,210 105.031895,210 L105.031895,210 C162.981789,210 209.959579,163.022211 209.959579,105.072 L209.959579,105.072 C209.959579,47.1221053 162.981789,0.144315789 105.031895,0.144315789"></path>
        <path id="path-31" d="M105.031895,0.144315789 C47.0816842,0.144315789 0.103894737,47.1221053 0.103894737,105.072 L0.103894737,105.072 C0.103894737,163.022211 47.0816842,210 105.031895,210 L105.031895,210 C162.981789,210 209.959579,163.022211 209.959579,105.072 L209.959579,105.072 C209.959579,47.1221053 162.981789,0.144315789 105.031895,0.144315789"></path>
        <path id="path-33" d="M105.031895,0.144315789 C47.0816842,0.144315789 0.103894737,47.1221053 0.103894737,105.072 L0.103894737,105.072 C0.103894737,163.022211 47.0816842,210 105.031895,210 L105.031895,210 C162.981789,210 209.959579,163.022211 209.959579,105.072 L209.959579,105.072 C209.959579,47.1221053 162.981789,0.144315789 105.031895,0.144315789"></path>
        <path id="path-35" d="M105.031895,0.144315789 C47.0816842,0.144315789 0.103894737,47.1221053 0.103894737,105.072 L0.103894737,105.072 C0.103894737,163.022211 47.0816842,210 105.031895,210 L105.031895,210 C162.981789,210 209.959579,163.022211 209.959579,105.072 L209.959579,105.072 C209.959579,47.1221053 162.981789,0.144315789 105.031895,0.144315789"></path>
        <path id="path-37" d="M105.031895,0.144315789 C47.0816842,0.144315789 0.103894737,47.1221053 0.103894737,105.072 L0.103894737,105.072 C0.103894737,163.022211 47.0816842,210 105.031895,210 L105.031895,210 C162.981789,210 209.959579,163.022211 209.959579,105.072 L209.959579,105.072 C209.959579,47.1221053 162.981789,0.144315789 105.031895,0.144315789"></path>
        <path id="path-39" d="M105.031895,0.144315789 C47.0816842,0.144315789 0.103894737,47.1221053 0.103894737,105.072 L0.103894737,105.072 C0.103894737,163.022211 47.0816842,210 105.031895,210 L105.031895,210 C162.981789,210 209.959579,163.022211 209.959579,105.072 L209.959579,105.072 C209.959579,47.1221053 162.981789,0.144315789 105.031895,0.144315789"></path>
        <path id="path-41" d="M105.031895,0.144315789 C47.0816842,0.144315789 0.103894737,47.1221053 0.103894737,105.072 L0.103894737,105.072 C0.103894737,163.022211 47.0816842,210 105.031895,210 L105.031895,210 C162.981789,210 209.959579,163.022211 209.959579,105.072 L209.959579,105.072 C209.959579,47.1221053 162.981789,0.144315789 105.031895,0.144315789"></path>
        <path id="path-43" d="M105.031895,0.144315789 C47.0816842,0.144315789 0.103894737,47.1221053 0.103894737,105.072 L0.103894737,105.072 C0.103894737,163.022211 47.0816842,210 105.031895,210 L105.031895,210 C162.981789,210 209.959579,163.022211 209.959579,105.072 L209.959579,105.072 C209.959579,47.1221053 162.981789,0.144315789 105.031895,0.144315789"></path>
        <path id="path-45" d="M105.031895,0.144315789 C47.0816842,0.144315789 0.103894737,47.1221053 0.103894737,105.072 L0.103894737,105.072 C0.103894737,163.022211 47.0816842,210 105.031895,210 L105.031895,210 C162.981789,210 209.959579,163.022211 209.959579,105.072 L209.959579,105.072 C209.959579,47.1221053 162.981789,0.144315789 105.031895,0.144315789"></path>
        <path id="path-47" d="M105.031895,0.144315789 C47.0816842,0.144315789 0.103894737,47.1221053 0.103894737,105.072 L0.103894737,105.072 C0.103894737,163.022211 47.0816842,210 105.031895,210 L105.031895,210 C162.981789,210 209.959579,163.022211 209.959579,105.072 L209.959579,105.072 C209.959579,47.1221053 162.981789,0.144315789 105.031895,0.144315789 L105.031895,0.144315789 Z"></path>
    </defs>
    <g id="素材" stroke="none" stroke-width="1" fill="none" fill-rule="evenodd" sketch:type="MSPage">
        <g id="ic_earth_signup" sketch:type="MSArtboardGroup">
            <g id="Page-1" sketch:type="MSLayerGroup" transform="translate(0.000000, -1.000000)">
                <g id="Group-3">
                    <mask id="mask-2" sketch:name="Clip 2" fill="white">
                        <use xlink:href="#path-1"></use>
                    </mask>
                    <g id="Clip-2"></g>
                    <path d="M209.959547,105.072158 C209.959547,163.022053 162.981758,209.999842 105.031863,209.999842 C47.0816526,209.999842 0.103863158,163.022053 0.103863158,105.072158 C0.103863158,47.1222632 47.0816526,0.144473684 105.031863,0.144473684 C162.981758,0.144473684 209.959547,47.1222632 209.959547,105.072158" id="Fill-1" fill="#51A3F4" sketch:type="MSShapeGroup" mask="url(#mask-2)"></path>
                </g>
                <g id="Group-6">
                    <mask id="mask-4" sketch:name="Clip 5" fill="white">
                        <use xlink:href="#path-3"></use>
                    </mask>
                    <g id="Clip-5"></g>
                    <path d="M125.192937,76.5784421 L125.192937,75.9894947 C125.192937,69.7703368 120.151358,64.7287579 113.9322,64.7287579 L54.9698842,64.7287579 C48.7507263,64.7287579 43.7091474,69.7703368 43.7091474,75.9894947 L43.7091474,76.5784421 C43.7091474,82.7976 48.7507263,87.8391789 54.9698842,87.8391789 L63.6544105,87.8391789 C69.8735684,87.8391789 74.9151474,92.8807579 74.9151474,99.0999158 L74.9151474,99.0999158 C74.9151474,105.319074 69.8735684,110.360653 63.6544105,110.360653 L44.9239895,110.360653 C38.7048316,110.360653 33.6632526,115.402232 33.6632526,121.621389 L33.6632526,121.768547 C33.6632526,127.987705 38.7048316,133.029284 44.9239895,133.029284 L118.559779,133.029284 C124.778937,133.029284 129.820516,127.987705 129.820516,121.768547 L129.820516,121.621389 C129.820516,115.402232 124.778937,110.360653 118.559779,110.360653 L108.991989,110.360653 C102.772832,110.360653 97.7312526,105.319074 97.7312526,99.0999158 L97.7312526,99.0999158 C97.7312526,92.8807579 102.772832,87.8391789 108.991989,87.8391789 L113.9322,87.8391789 C120.151358,87.8391789 125.192937,82.7976 125.192937,76.5784421" id="Fill-4" fill="#5BC479" sketch:type="MSShapeGroup" mask="url(#mask-4)"></path>
                </g>
                <g id="Group-9">
                    <mask id="mask-6" sketch:name="Clip 8" fill="white">
                        <use xlink:href="#path-5"></use>
                    </mask>
                    <g id="Clip-8"></g>
                    <path d="M143.258842,28.4109474 L143.258842,28.1317895 C143.258842,25.1832632 140.868632,22.7930526 137.920105,22.7930526 L109.966421,22.7930526 C107.018211,22.7930526 104.628,25.1832632 104.628,28.1317895 L104.628,28.4109474 C104.628,31.3594737 107.018211,33.7496842 109.966421,33.7496842 L114.084,33.7496842 C117.032211,33.7496842 119.422421,36.1398947 119.422421,39.0881053 L119.422421,39.0881053 C119.422421,42.0366316 117.032211,44.4268421 114.084,44.4268421 L87.1253684,44.4268421 C84.1768421,44.4268421 81.7866316,46.8170526 81.7866316,49.7655789 L81.7866316,49.8353684 C81.7866316,52.7838947 84.1768421,55.1737895 87.1253684,55.1737895 L140.114211,55.1737895 C143.062737,55.1737895 145.452632,52.7838947 145.452632,49.8353684 L145.452632,49.7655789 C145.452632,46.8170526 143.062737,44.4268421 140.114211,44.4268421 L135.577895,44.4268421 C132.629684,44.4268421 130.239474,42.0366316 130.239474,39.0881053 L130.239474,39.0881053 C130.239474,36.1398947 132.629684,33.7496842 135.577895,33.7496842 L137.920105,33.7496842 C140.868632,33.7496842 143.258842,31.3594737 143.258842,28.4109474" id="Fill-7" fill="#8CC63F" sketch:type="MSShapeGroup" mask="url(#mask-6)"></path>
                </g>
                <g id="Group-12">
                    <mask id="mask-8" sketch:name="Clip 11" fill="white">
                        <use xlink:href="#path-7"></use>
                    </mask>
                    <g id="Clip-11"></g>
                    <path d="M141.573095,141.169516 L141.573095,140.756147 C141.573095,136.390989 138.034358,132.852253 133.6692,132.852253 L69.7969895,132.852253 C65.4318316,132.852253 61.8930947,136.390989 61.8930947,140.756147 L61.8930947,141.169516 C61.8930947,145.534674 65.4318316,149.073411 69.7969895,149.073411 L98.3797263,149.073411 C102.744884,149.073411 106.283305,152.612147 106.283305,156.977305 L106.283305,156.977305 C106.283305,161.342463 102.744884,164.8812 98.3797263,164.8812 L94.3922526,164.8812 C90.0270947,164.8812 86.4883579,168.419621 86.4883579,172.784779 L86.4883579,172.888358 C86.4883579,177.253516 90.0270947,180.792253 94.3922526,180.792253 L136.917411,180.792253 C141.282568,180.792253 144.821305,177.253516 144.821305,172.888358 L144.821305,172.784779 C144.821305,168.419621 141.282568,164.8812 136.917411,164.8812 L130.201516,164.8812 C125.836358,164.8812 122.297937,161.342463 122.297937,156.977305 L122.297937,156.977305 C122.297937,152.612147 125.836358,149.073411 130.201516,149.073411 L133.6692,149.073411 C138.034358,149.073411 141.573095,145.534674 141.573095,141.169516" id="Fill-10" fill="#009245" sketch:type="MSShapeGroup" mask="url(#mask-8)"></path>
                </g>
                <g id="Group-15">
                    <mask id="mask-10" sketch:name="Clip 14" fill="white">
                        <use xlink:href="#path-9"></use>
                    </mask>
                    <g id="Clip-14"></g>
                    <path d="M141.919674,185.282684 C137.554516,185.282684 133.768516,189.486474 133.768516,193.851632 L133.768516,194.265 C133.768516,198.630158 137.554516,202.019526 141.919674,202.019526 L161.298726,202.019526 C171.140621,197.914263 180.2322,192.230053 188.306621,185.282684 L141.919674,185.282684 Z" id="Fill-13" fill="#5BC479" sketch:type="MSShapeGroup" mask="url(#mask-10)"></path>
                </g>
                <g id="Group-18">
                    <mask id="mask-12" sketch:name="Clip 17" fill="white">
                        <use xlink:href="#path-11"></use>
                    </mask>
                    <g id="Clip-17"></g>
                    <path d="M21.3475263,96.6374526 L21.3475263,96.5341895 C21.3475263,92.1690316 17.6022632,88.6511368 13.2367895,88.6511368 L6.52121053,88.6511368 C2.15605263,88.6511368 -1.38931579,85.0846105 -1.38931579,80.7194526 L-1.38931579,80.7456632 C-1.38931579,76.3805053 2.15605263,72.2300842 6.52121053,72.2300842 L9.98889474,72.2300842 C14.3540526,72.2300842 17.8738421,69.2837684 17.8738421,64.9186105 L17.8738421,64.5055579 C17.8738421,60.1404 14.3540526,56.1248211 9.98889474,56.1248211 L1.84278947,56.1248211 C-5.64584211,70.6511368 -9.91215789,87.3879789 -9.99805263,103.809032 L13.2367895,103.809032 C17.6022632,103.809032 21.3475263,101.002611 21.3475263,96.6374526" id="Fill-16" fill="#A1DBFF" sketch:type="MSShapeGroup" mask="url(#mask-12)"></path>
                </g>
                <g id="Group-21">
                    <mask id="mask-14" sketch:name="Clip 20" fill="white">
                        <use xlink:href="#path-13"></use>
                    </mask>
                    <g id="Clip-20"></g>
                    <path d="M192.3348,141.387947 L156.037326,141.387947 C152.155642,141.387947 148.926379,144.846474 148.926379,148.728158 L148.926379,148.820053 C148.926379,152.702053 152.155642,155.914263 156.037326,155.914263 L162.009537,155.914263 C165.891221,155.914263 168.821116,158.998895 168.821116,162.880579 L168.821116,162.843 C168.821116,166.724684 165.891221,169.493211 162.009537,169.493211 L158.925853,169.493211 C155.043853,169.493211 151.768484,173.053105 151.768484,176.934789 L151.768484,177.302368 C151.768484,181.184053 155.043853,184.019526 158.925853,184.019526 L162.740274,184.019526 C175.876484,172.335316 186.147853,158.440579 192.3348,141.387947" id="Fill-19" fill="#A1DBFF" sketch:type="MSShapeGroup" mask="url(#mask-14)"></path>
                </g>
                <g id="Group-24">
                    <mask id="mask-16" sketch:name="Clip 23" fill="white">
                        <use xlink:href="#path-15"></use>
                    </mask>
                    <g id="Clip-23"></g>
                    <path d="M73.137,28.6813895 L73.137,28.3138105 C73.137,24.4321263 69.9617368,20.7563368 66.0800526,20.7563368 L40.6621579,20.7563368 C38.8195263,20.7563368 37.143,19.9390737 35.8896316,18.7785474 C29.2353158,23.4961263 23.1554211,29.2826526 17.7734211,34.9668632 L66.0800526,34.9668632 C69.9617368,34.9668632 73.137,32.5633895 73.137,28.6813895" id="Fill-22" fill="#79B6F2" sketch:type="MSShapeGroup" mask="url(#mask-16)"></path>
                </g>
                <g id="Group-27">
                    <mask id="mask-18" sketch:name="Clip 26" fill="white">
                        <use xlink:href="#path-17"></use>
                    </mask>
                    <g id="Clip-26"></g>
                    <path d="M168.619674,11.8440947 C164.936937,13.0046211 162.189568,16.4451474 162.189568,20.5112526 L162.189568,20.9865158 C162.189568,26.0053579 166.411674,30.2299895 171.430516,30.2299895 L178.439463,30.2299895 C183.458305,30.2299895 187.452726,34.2206211 187.452726,39.2397789 L187.452726,39.1911474 C187.452726,44.2099895 183.458305,48.2299895 178.439463,48.2299895 L163.323253,48.2299895 C158.304411,48.2299895 154.294832,52.3182 154.294832,57.3370421 L154.294832,57.4557789 C154.294832,62.4749368 158.304411,66.5457789 163.323253,66.5457789 L218.133253,66.5457789 C208.791253,42.8615684 191.024937,23.4490421 168.619674,11.8440947" id="Fill-25" fill="#F2F2F2" sketch:type="MSShapeGroup" mask="url(#mask-18)"></path>
                </g>
                <g id="Group-30">
                    <mask id="mask-20" sketch:name="Clip 29" fill="white">
                        <use xlink:href="#path-19"></use>
                    </mask>
                    <g id="Clip-29"></g>
                    <path d="M37.7685789,166.020316 L37.7685789,165.552632 C37.7685789,160.612421 33.7271053,156.546 28.7868947,156.546 L21.8884737,156.546 C16.9482632,156.546 12.8212105,152.572105 12.8212105,147.632211 L12.8212105,147.719368 C12.8212105,142.779158 16.9482632,138.861789 21.8884737,138.861789 L36.7665789,138.861789 C41.7067895,138.861789 45.6633158,134.713579 45.6633158,129.773368 L45.6633158,129.656526 C45.6633158,124.716632 41.7067895,120.861789 36.7665789,120.861789 L-10.1051053,120.861789 C-7.01605263,141.388105 2.10173684,160.019684 15.4027895,174.861789 L28.7868947,174.861789 C33.7271053,174.861789 37.7685789,170.960526 37.7685789,166.020316" id="Fill-28" fill="#F2F2F2" sketch:type="MSShapeGroup" mask="url(#mask-20)"></path>
                </g>
                <g id="Group-33">
                    <mask id="mask-22" sketch:name="Clip 32" fill="white">
                        <use xlink:href="#path-21"></use>
                    </mask>
                    <g id="Clip-32"></g>
                    <path d="M141.386558,124.019526 L136.255295,124.019526 C134.300558,124.019526 132.716242,122.500263 132.716242,120.545842 C132.716242,118.591421 134.300558,117.072158 136.255295,117.072158 L141.386558,117.072158 C143.340979,117.072158 144.925295,118.591421 144.925295,120.545842 C144.925295,122.500263 143.340979,124.019526 141.386558,124.019526" id="Fill-31" fill="#F2F2F2" sketch:type="MSShapeGroup" mask="url(#mask-22)"></path>
                </g>
                <g id="Group-36">
                    <mask id="mask-24" sketch:name="Clip 35" fill="white">
                        <use xlink:href="#path-23"></use>
                    </mask>
                    <g id="Clip-35"></g>
                    <path d="M166.422884,94.6511053 L142.181621,94.6511053 C140.226884,94.6511053 138.642568,92.9739474 138.642568,91.0195263 C138.642568,89.0651053 140.226884,87.3879474 142.181621,87.3879474 L166.422884,87.3879474 C168.377305,87.3879474 169.961621,89.0651053 169.961621,91.0195263 C169.961621,92.9739474 168.377305,94.6511053 166.422884,94.6511053" id="Fill-34" fill="#F2F2F2" sketch:type="MSShapeGroup" mask="url(#mask-24)"></path>
                </g>
                <g id="Group-39">
                    <mask id="mask-26" sketch:name="Clip 38" fill="white">
                        <use xlink:href="#path-25"></use>
                    </mask>
                    <g id="Clip-38"></g>
                    <path d="M178.152821,94.6511053 L175.675453,94.6511053 C173.721032,94.6511053 172.136716,92.9739474 172.136716,91.0195263 C172.136716,89.0651053 173.721032,87.3879474 175.675453,87.3879474 L178.152821,87.3879474 C180.107242,87.3879474 181.691558,89.0651053 181.691558,91.0195263 C181.691558,92.9739474 180.107242,94.6511053 178.152821,94.6511053" id="Fill-37" fill="#F2F2F2" sketch:type="MSShapeGroup" mask="url(#mask-26)"></path>
                </g>
                <g id="Group-46">
                    <g id="Group-42">
                        <mask id="mask-28" sketch:name="Clip 41" fill="white">
                            <use xlink:href="#path-27"></use>
                        </mask>
                        <g id="Clip-41"></g>
                        <path d="M161.796032,108.230053 L150.294663,108.230053 C148.340242,108.230053 146.755926,106.395 146.755926,104.440579 C146.755926,102.486158 148.340242,100.651105 150.294663,100.651105 L161.796032,100.651105 C163.750453,100.651105 165.334768,102.486158 165.334768,104.440579 C165.334768,106.395 163.750453,108.230053 161.796032,108.230053" id="Fill-40" fill="#F2F2F2" sketch:type="MSShapeGroup" mask="url(#mask-28)"></path>
                    </g>
                    <g id="Group-45">
                        <mask id="mask-30" sketch:name="Clip 44" fill="white">
                            <use xlink:href="#path-29"></use>
                        </mask>
                        <g id="Clip-44"></g>
                        <path d="M175.774611,108.545842 L173.297242,108.545842 C171.342821,108.545842 169.758505,106.710789 169.758505,104.756368 C169.758505,102.801947 171.342821,100.966895 173.297242,100.966895 L175.774611,100.966895 C177.729032,100.966895 179.313347,102.801947 179.313347,104.756368 C179.313347,106.710789 177.729032,108.545842 175.774611,108.545842" id="Fill-43" fill="#F2F2F2" sketch:type="MSShapeGroup" mask="url(#mask-30)"></path>
                    </g>
                </g>
                <g id="Group-53">
                    <g id="Group-49">
                        <mask id="mask-32" sketch:name="Clip 48" fill="white">
                            <use xlink:href="#path-31"></use>
                        </mask>
                        <g id="Clip-48"></g>
                        <path d="M120.4944,197.914263 L108.993032,197.914263 C107.038611,197.914263 105.454295,196.237105 105.454295,194.282684 C105.454295,192.328263 107.038611,190.651105 108.993032,190.651105 L120.4944,190.651105 C122.448821,190.651105 124.033137,192.328263 124.033137,194.282684 C124.033137,196.237105 122.448821,197.914263 120.4944,197.914263" id="Fill-47" fill="#F2F2F2" sketch:type="MSShapeGroup" mask="url(#mask-32)"></path>
                    </g>
                    <g id="Group-52">
                        <mask id="mask-34" sketch:name="Clip 51" fill="white">
                            <use xlink:href="#path-33"></use>
                        </mask>
                        <g id="Clip-51"></g>
                        <path d="M97.4916947,197.914263 L95.0143263,197.914263 C93.0599053,197.914263 91.4755895,196.237105 91.4755895,194.282684 C91.4755895,192.328263 93.0599053,190.651105 95.0143263,190.651105 L97.4916947,190.651105 C99.4461158,190.651105 101.030432,192.328263 101.030432,194.282684 C101.030432,196.237105 99.4461158,197.914263 97.4916947,197.914263" id="Fill-50" fill="#F2F2F2" sketch:type="MSShapeGroup" mask="url(#mask-34)"></path>
                    </g>
                </g>
                <g id="Group-60">
                    <g id="Group-56">
                        <mask id="mask-36" sketch:name="Clip 55" fill="white">
                            <use xlink:href="#path-35"></use>
                        </mask>
                        <g id="Clip-55"></g>
                        <path d="M40.4166947,52.3353158 L38.1164842,52.3353158 C36.1620632,52.3353158 34.5774316,50.8160526 34.5774316,48.8616316 C34.5774316,46.9072105 36.1620632,45.3879474 38.1164842,45.3879474 L40.4166947,45.3879474 C42.3711158,45.3879474 43.9554316,46.9072105 43.9554316,48.8616316 C43.9554316,50.8160526 42.3711158,52.3353158 40.4166947,52.3353158" id="Fill-54" fill="#F2F2F2" sketch:type="MSShapeGroup" mask="url(#mask-36)"></path>
                    </g>
                    <g id="Group-59">
                        <mask id="mask-38" sketch:name="Clip 58" fill="white">
                            <use xlink:href="#path-37"></use>
                        </mask>
                        <g id="Clip-58"></g>
                        <path d="M56.6955474,52.3353158 L50.8562842,52.3353158 C48.9018632,52.3353158 47.3175474,50.8160526 47.3175474,48.8616316 C47.3175474,46.9072105 48.9018632,45.3879474 50.8562842,45.3879474 L56.6955474,45.3879474 C58.6499684,45.3879474 60.2342842,46.9072105 60.2342842,48.8616316 C60.2342842,50.8160526 58.6499684,52.3353158 56.6955474,52.3353158" id="Fill-57" fill="#F2F2F2" sketch:type="MSShapeGroup" mask="url(#mask-38)"></path>
                    </g>
                </g>
                <g id="Group-67">
                    <g id="Group-63">
                        <mask id="mask-40" sketch:name="Clip 62" fill="white">
                            <use xlink:href="#path-39"></use>
                        </mask>
                        <g id="Clip-62"></g>
                        <path d="M54.8473579,166.335316 L52.5471474,166.335316 C50.5927263,166.335316 49.0080947,164.816053 49.0080947,162.861632 C49.0080947,160.907211 50.5927263,159.387947 52.5471474,159.387947 L54.8473579,159.387947 C56.8017789,159.387947 58.3860947,160.907211 58.3860947,162.861632 C58.3860947,164.816053 56.8017789,166.335316 54.8473579,166.335316" id="Fill-61" fill="#F2F2F2" sketch:type="MSShapeGroup" mask="url(#mask-40)"></path>
                    </g>
                    <g id="Group-66">
                        <mask id="mask-42" sketch:name="Clip 65" fill="white">
                            <use xlink:href="#path-41"></use>
                        </mask>
                        <g id="Clip-65"></g>
                        <path d="M71.1262105,166.335316 L65.2869474,166.335316 C63.3325263,166.335316 61.7482105,164.816053 61.7482105,162.861632 C61.7482105,160.907211 63.3325263,159.387947 65.2869474,159.387947 L71.1262105,159.387947 C73.0806316,159.387947 74.6649474,160.907211 74.6649474,162.861632 C74.6649474,164.816053 73.0806316,166.335316 71.1262105,166.335316" id="Fill-64" fill="#F2F2F2" sketch:type="MSShapeGroup" mask="url(#mask-42)"></path>
                    </g>
                </g>
                <g id="Group-74">
                    <g id="Group-70">
                        <mask id="mask-44" sketch:name="Clip 69" fill="white">
                            <use xlink:href="#path-43"></use>
                        </mask>
                        <g id="Clip-69"></g>
                        <path d="M100.907021,17.2826842 L83.7435474,17.2826842 C81.7888105,17.2826842 80.2044947,15.6055263 80.2044947,13.6511053 C80.2044947,11.6966842 81.7888105,10.0195263 83.7435474,10.0195263 L100.907021,10.0195263 C102.861442,10.0195263 104.445758,11.6966842 104.445758,13.6511053 C104.445758,15.6055263 102.861442,17.2826842 100.907021,17.2826842" id="Fill-68" fill="#F2F2F2" sketch:type="MSShapeGroup" mask="url(#mask-44)"></path>
                    </g>
                    <g id="Group-73">
                        <mask id="mask-46" sketch:name="Clip 72" fill="white">
                            <use xlink:href="#path-45"></use>
                        </mask>
                        <g id="Clip-72"></g>
                        <path d="M115.062537,17.2826842 L112.231484,17.2826842 C110.277063,17.2826842 108.692432,15.6055263 108.692432,13.6511053 C108.692432,11.6966842 110.277063,10.0195263 112.231484,10.0195263 L115.062537,10.0195263 C117.016958,10.0195263 118.601274,11.6966842 118.601274,13.6511053 C118.601274,15.6055263 117.016958,17.2826842 115.062537,17.2826842" id="Fill-71" fill="#F2F2F2" sketch:type="MSShapeGroup" mask="url(#mask-46)"></path>
                    </g>
                </g>
                <mask id="mask-48" sketch:name="Clip 76" fill="white">
                    <use xlink:href="#path-47"></use>
                </mask>
                <g id="Clip-76"></g>
                <path d="M212.715789,175.091684 L171.978947,175.091684 L171.978947,141.618 L212.715789,141.618 L212.715789,175.091684 Z" id="Fill-75" fill="#A1DBFF" sketch:type="MSShapeGroup" mask="url(#mask-48)"></path>
                <path d="M198.189474,174.144316 L160.926316,174.144316 L160.926316,184.249579 L198.189474,184.249579 L198.189474,174.144316 Z" id="Fill-77" fill="#A1DBFF" sketch:type="MSShapeGroup" mask="url(#mask-48)"></path>
            </g>
        </g>
    </g>
</svg>
