<svg viewBox="0 0 210 210" xmlns="http://www.w3.org/2000/svg" xmlns:xlink="http://www.w3.org/1999/xlink"><title>ic_tabibito_login</title><defs><path id="a" d="M0 .013h200V269H0V.012z"/></defs><g fill="none" fill-rule="evenodd"><path fill="#EFEFEF" d="M0 0h210v210H0z"/><g transform="translate(0 49)"><path d="M177.966 145.137v-54h-29.5c-6.173 0-11.178-4.82-11.178-10.97 0-6.146 5.005-10.967 11.178-10.967h39.614c6.173 0 11.92 6.34 11.92 12.487v63.45h-22.034z" fill="#3A94FF"/><path d="M177.966 131.637v17.55c0 5.117 4.88 9.45 11.054 9.45h.002c6.175 0 10.978-4.877 10.978-9.45v-17.55h-22.034z" fill="#FFE7DE"/><mask id="b" fill="#fff"><use xlink:href="#a"/></mask><path d="M43.87 59.723H15.255V19.25H43.87v40.473z" fill="#46A55E" mask="url(#b)"/><path d="M125.424 135.193c-2.38 0-4.685-1.264-5.9-3.493-1.768-3.242-.56-7.295 2.695-9.055 41.575-22.47 24.128-65.803 23.364-67.635-1.416-3.4.198-7.31 3.61-8.726 3.41-1.423 7.33.173 8.762 3.565.236.558 23.006 56.242-29.337 84.533-1.018.548-2.114.81-3.196.81" fill="#47B268" mask="url(#b)"/><path d="M112.49 160.972H52.504c-10.275 0-18.606-8.292-18.606-18.523V37.772c0-10.23 8.33-18.524 18.606-18.524h59.988c10.275 0 18.606 8.294 18.606 18.523V142.45c0 10.23-8.33 18.522-18.605 18.522" fill="#63CE84" mask="url(#b)"/><path d="M50.15 161h-.3c-8.81 0-15.952-7.11-15.952-15.88V35.13c0-8.77 7.143-15.88 15.95-15.88h.303c8.81 0 15.952 7.11 15.952 15.88v109.99c0 8.77-7.14 15.88-15.95 15.88" fill="#5BC479" mask="url(#b)"/><path d="M158.817 258.2H129.12c-3.527 0-6.847-1.178-8.957-3.993-2.11-2.815-2.763-6.215-1.758-9.583 16.42-55.092-6.19-95.1-6.42-95.5-3.068-5.312-1.254-12.055 4.07-15.13 5.323-3.077 12.133-1.596 15.245 3.693 1.058 1.802 23.958 41.2 12.142 98.575h15.375c6.173 0 11.178 4.82 11.178 10.97 0 6.146-5.005 10.968-11.178 10.968" fill="#3289E0" mask="url(#b)"/><path d="M124.536 258.2H94.84c-3.527 0-6.848-1.178-8.958-3.993-2.11-2.815-2.763-6.215-1.757-9.583 16.418-55.092-6.19-95.1-6.42-95.5-3.07-5.312-1.255-12.055 4.07-15.13 5.322-3.077 12.133-1.596 15.244 3.693 1.057 1.802 23.957 41.2 12.142 98.575h15.374c6.173 0 11.178 4.82 11.178 10.97 0 6.146-5.005 10.968-11.178 10.968" fill="#3A94FF" mask="url(#b)"/><path d="M69.46 116.45c0 37.125 22.096 62.692 49.353 62.692 27.26 0 49.356-25.567 49.356-62.692H69.46z" fill="#3A94FF" mask="url(#b)"/><path d="M168.17 116.45c0-32.063-22.098-62.05-49.356-62.05-27.26 0-49.356 29.987-49.356 62.05h98.71z" fill="#E6EBED" mask="url(#b)"/><path d="M103.39 38.967c0 18.107 14.86 32.786 33.19 32.786 18.334 0 33.195-14.68 33.195-32.786 0-18.107-14.86-32.787-33.194-32.787-18.33 0-33.19 14.68-33.19 32.787" fill="#FFE7DE" mask="url(#b)"/><path d="M62.712 13.512v54h29.444c6.173 0 11.178 4.82 11.178 10.97 0 6.146-5.005 10.968-11.178 10.968H52.542c-6.173 0-11.862-4.992-11.864-11.138v-64.8h22.034z" fill="#3A94FF" mask="url(#b)"/><path d="M62.712 27.012v-16.2c0-5.116-4.937-10.8-11.11-10.8H51.6c-6.175 0-10.922 6.23-10.922 10.8v16.2h22.034z" fill="#FFE7DE" mask="url(#b)"/><path d="M105.085 25.325h62.712c-5.528-13.5-17.487-20.25-31.356-20.25-13.87 0-25.828 6.75-31.355 20.25" fill="#494848" mask="url(#b)"/><path d="M65.806 133.71c-2.38 0-4.685-1.265-5.9-3.494-1.768-3.242-.56-7.295 2.695-9.055 41.577-22.47 24.13-65.802 23.365-67.634-1.415-3.4.2-7.31 3.61-8.726 3.41-1.425 7.33.172 8.763 3.565.236.56 23.005 56.243-29.337 84.534-1.016.547-2.113.81-3.194.81" fill="#47B268" mask="url(#b)"/><path d="M30.508 39.41c0 11.134-6.828 20.16-15.254 20.16C6.83 59.57 0 50.544 0 39.41s6.83-20.16 15.254-20.16c8.426 0 15.254 9.026 15.254 20.16" fill="#5BC479" mask="url(#b)"/><path d="M139.83 36.125c-1.403 0-2.542-1.134-2.542-2.53 0-1.398 1.14-2.532 2.543-2.532 1.404 0 2.543 1.134 2.543 2.53 0 1.398-1.14 2.532-2.542 2.532M151.695 36.125c-1.403 0-2.542-1.134-2.542-2.53 0-1.398 1.14-2.532 2.542-2.532 1.403 0 2.542 1.134 2.542 2.53 0 1.398-1.14 2.532-2.542 2.532M153.39 46.25h-15.254c-1.404 0-2.543-1.134-2.543-2.53 0-1.398 1.14-2.532 2.543-2.532h15.254c1.403 0 2.542 1.133 2.542 2.53 0 1.398-1.14 2.532-2.542 2.532" fill="#494848" mask="url(#b)"/></g></g></svg>